<?xml version="1.0" encoding="UTF-8" standalone="no"?>
<!-- Created with Inkscape (http://www.inkscape.org/) -->

<svg
   xmlns:dc="http://purl.org/dc/elements/1.1/"
   xmlns:cc="http://creativecommons.org/ns#"
   xmlns:rdf="http://www.w3.org/1999/02/22-rdf-syntax-ns#"
   xmlns:svg="http://www.w3.org/2000/svg"
   xmlns="http://www.w3.org/2000/svg"
   xmlns:sodipodi="http://sodipodi.sourceforge.net/DTD/sodipodi-0.dtd"
   xmlns:inkscape="http://www.inkscape.org/namespaces/inkscape"
   id="svg2"
   version="1.1"
   inkscape:version="0.91 r13725"
   xml:space="preserve"
   width="1771.15"
   height="1057.5762"
   viewBox="0 0 1771.15 1057.5762"
   sodipodi:docname="egg_counter_laser_sheet.svg"><metadata
     id="metadata8"><rdf:RDF><cc:Work
         rdf:about=""><dc:format>image/svg+xml</dc:format><dc:type
           rdf:resource="http://purl.org/dc/dcmitype/StillImage" /><dc:title></dc:title></cc:Work></rdf:RDF></metadata><defs
     id="defs6"><clipPath
       clipPathUnits="userSpaceOnUse"
       id="clipPath16"><path
         d="m 0,846.061 1416.919,0 L 1416.919,0 0,0 0,846.061 Z"
         id="path18"
         inkscape:connector-curvature="0" /></clipPath><clipPath
       clipPathUnits="userSpaceOnUse"
       id="clipPath28"><path
         d="m 0,846.061 1416.919,0 L 1416.919,0 0,0 0,846.061 Z"
         id="path30"
         inkscape:connector-curvature="0" /></clipPath></defs><sodipodi:namedview
     pagecolor="#ffffff"
     bordercolor="#666666"
     borderopacity="1"
     objecttolerance="10"
     gridtolerance="10"
     guidetolerance="10"
     inkscape:pageopacity="0"
     inkscape:pageshadow="2"
     inkscape:window-width="962"
     inkscape:window-height="601"
     id="namedview4"
     showgrid="false"
     inkscape:zoom="0.21285605"
     inkscape:cx="885.57501"
     inkscape:cy="528.78809"
     inkscape:window-x="304"
     inkscape:window-y="173"
     inkscape:window-maximized="0"
     inkscape:current-layer="g10" /><g
     id="g10"
     inkscape:groupmode="layer"
     inkscape:label="3mm_frosted_midnight_black"
     transform="matrix(1.25,0,0,-1.25,0,1057.5762)"><g
       id="g12"><g
         id="g14"
         clip-path="url(#clipPath16)"><path
           d="m 242.779,596.78 -243.779,0 0,243.78 243.779,0 0,-243.78 z"
           style="fill:none;stroke:#1d1d1b;stroke-width:0.28299999;stroke-linecap:butt;stroke-linejoin:miter;stroke-miterlimit:10;stroke-dasharray:none;stroke-opacity:1"
           id="path20"
           inkscape:connector-curvature="0" /></g></g><path
       d="m 490.013,595.779 -243.779,0 0,243.78 243.779,0 0,-243.78 z"
       style="fill:none;stroke:#1d1d1b;stroke-width:0.28299999;stroke-linecap:butt;stroke-linejoin:miter;stroke-miterlimit:10;stroke-dasharray:none;stroke-opacity:1"
       id="path22"
       inkscape:connector-curvature="0" /><g
       id="g24"><g
         id="g26"
         clip-path="url(#clipPath28)"><g
           id="g32"
           transform="translate(446.0762,757.355)"><path
             d="M 0,0 C 0,0 8.594,-8.138 8.594,-39.685 8.594,-73.373 0,-79.37 0,-79.37 l -155.906,0 c 0,0 -8.503,9.122 -8.503,39.685 0,30.766 8.503,39.685 8.503,39.685 L 0,0"
             style="fill:none;stroke:#1d1d1b;stroke-width:0.28299999;stroke-linecap:butt;stroke-linejoin:miter;stroke-miterlimit:10;stroke-dasharray:none;stroke-opacity:1"
             id="path34"
             inkscape:connector-curvature="0" /></g><g
           id="g36"
           transform="translate(234.2759,24.0088)"><path
             d="m 0,0 0,226.771 -226.772,0 0,-226.771 56.701,0 21.253,113.386 c 0,19.568 15.863,35.432 35.432,35.432 19.57,0 35.433,-15.864 35.433,-35.432 L -56.685,0 0,0 Z"
             style="fill:none;stroke:#1d1d1b;stroke-width:0.28299999;stroke-linecap:butt;stroke-linejoin:miter;stroke-miterlimit:10;stroke-dasharray:none;stroke-opacity:1"
             id="path38"
             inkscape:connector-curvature="0" /></g><path
           d="m 232.648,355.015 -226.773,0 0,226.771 226.773,0 0,-226.771 z"
           style="fill:none;stroke:#1d1d1b;stroke-width:0.28299999;stroke-linecap:butt;stroke-linejoin:miter;stroke-miterlimit:10;stroke-dasharray:none;stroke-opacity:1"
           id="path40"
           inkscape:connector-curvature="0" /><g
           id="g42"
           transform="translate(154.6953,468.4004)"><path
             d="m 0,0 c 0,-19.569 -15.864,-35.434 -35.434,-35.434 -19.568,0 -35.432,15.865 -35.432,35.434 0,19.568 15.864,35.433 35.432,35.433 C -15.864,35.433 0,19.568 0,0 Z"
             style="fill:none;stroke:#1d1d1b;stroke-width:0.28299999;stroke-linecap:butt;stroke-linejoin:miter;stroke-miterlimit:10;stroke-dasharray:none;stroke-opacity:1"
             id="path44"
             inkscape:connector-curvature="0" /></g><path
           d="m 234.275,273.153 -226.771,0 0,56.693 226.771,0 0,-56.693 z"
           style="fill:none;stroke:#1d1d1b;stroke-width:0.28299999;stroke-linecap:butt;stroke-linejoin:miter;stroke-miterlimit:10;stroke-dasharray:none;stroke-opacity:1"
           id="path46"
           inkscape:connector-curvature="0" /><g
           id="g48"
           transform="translate(31.6074,293.8584)"><path
             d="m 0,0 -4.27,7.631 4.235,7.654 8.504,0.021 L 12.738,7.674 8.504,0.021 0,0 Z"
             style="fill:none;stroke:#1d1d1b;stroke-width:0.28299999;stroke-linecap:butt;stroke-linejoin:miter;stroke-miterlimit:10;stroke-dasharray:none;stroke-opacity:1"
             id="path50"
             inkscape:connector-curvature="0" /></g><g
           id="g52"
           transform="translate(201.6855,293.8574)"><path
             d="m 0,0 -4.27,7.631 4.235,7.654 8.504,0.022 L 12.738,7.674 8.504,0.021 0,0 Z"
             style="fill:none;stroke:#1d1d1b;stroke-width:0.28299999;stroke-linecap:butt;stroke-linejoin:miter;stroke-miterlimit:10;stroke-dasharray:none;stroke-opacity:1"
             id="path54"
             inkscape:connector-curvature="0" /></g><path
           d="m 481.264,273.153 -226.771,0 0,56.693 226.771,0 0,-56.693 z"
           style="fill:none;stroke:#1d1d1b;stroke-width:0.28299999;stroke-linecap:butt;stroke-linejoin:miter;stroke-miterlimit:10;stroke-dasharray:none;stroke-opacity:1"
           id="path56"
           inkscape:connector-curvature="0" /><g
           id="g58"
           transform="translate(278.5957,293.8584)"><path
             d="m 0,0 -4.27,7.631 4.235,7.654 8.504,0.021 L 12.738,7.674 8.504,0.021 0,0 Z"
             style="fill:none;stroke:#1d1d1b;stroke-width:0.28299999;stroke-linecap:butt;stroke-linejoin:miter;stroke-miterlimit:10;stroke-dasharray:none;stroke-opacity:1"
             id="path60"
             inkscape:connector-curvature="0" /></g><g
           id="g62"
           transform="translate(448.6738,293.8574)"><path
             d="m 0,0 -4.27,7.631 4.235,7.654 8.504,0.022 L 12.738,7.674 8.504,0.021 0,0 Z"
             style="fill:none;stroke:#1d1d1b;stroke-width:0.28299999;stroke-linecap:butt;stroke-linejoin:miter;stroke-miterlimit:10;stroke-dasharray:none;stroke-opacity:1"
             id="path64"
             inkscape:connector-curvature="0" /></g><path
           d="m 1097.557,253.117 -235.275,0 0,345.826 235.275,0 0,-345.826 z"
           style="fill:none;stroke:#1d1d1b;stroke-width:0.28299999;stroke-linecap:butt;stroke-linejoin:miter;stroke-miterlimit:10;stroke-dasharray:none;stroke-opacity:1"
           id="path66"
           inkscape:connector-curvature="0" /><g
           id="g68"
           transform="translate(886.3672,281.4678)"><path
             d="M 0,0 C 0,2.349 1.904,4.252 4.252,4.252 6.6,4.252 8.504,2.349 8.504,0 8.504,-2.349 6.6,-4.252 4.252,-4.252 1.904,-4.252 0,-2.349 0,0 Z"
             style="fill:none;stroke:#1d1d1b;stroke-width:0.28299999;stroke-linecap:butt;stroke-linejoin:miter;stroke-miterlimit:10;stroke-dasharray:none;stroke-opacity:1"
             id="path70"
             inkscape:connector-curvature="0" /></g><g
           id="g72"
           transform="translate(1064.9492,281.4678)"><path
             d="M 0,0 C 0,2.349 1.904,4.252 4.252,4.252 6.6,4.252 8.504,2.349 8.504,0 8.504,-2.349 6.6,-4.252 4.252,-4.252 1.904,-4.252 0,-2.349 0,0 Z"
             style="fill:none;stroke:#1d1d1b;stroke-width:0.28299999;stroke-linecap:butt;stroke-linejoin:miter;stroke-miterlimit:10;stroke-dasharray:none;stroke-opacity:1"
             id="path74"
             inkscape:connector-curvature="0" /></g><path
           d="m 588.605,350.763 -345.826,0 0,235.275 345.826,0 0,-235.275 z"
           style="fill:none;stroke:#1d1d1b;stroke-width:0.28299999;stroke-linecap:butt;stroke-linejoin:miter;stroke-miterlimit:10;stroke-dasharray:none;stroke-opacity:1"
           id="path76"
           inkscape:connector-curvature="0" /><g
           id="g78"
           transform="translate(560.2549,374.8486)"><path
             d="M 0,0 C -2.349,0 -4.252,1.904 -4.252,4.252 -4.252,6.6 -2.349,8.504 0,8.504 2.349,8.504 4.252,6.6 4.252,4.252 4.252,1.904 2.349,0 0,0 Z"
             style="fill:none;stroke:#1d1d1b;stroke-width:0.28299999;stroke-linecap:butt;stroke-linejoin:miter;stroke-miterlimit:10;stroke-dasharray:none;stroke-opacity:1"
             id="path80"
             inkscape:connector-curvature="0" /></g><g
           id="g82"
           transform="translate(560.2549,553.4307)"><path
             d="M 0,0 C -2.349,0 -4.252,1.904 -4.252,4.252 -4.252,6.6 -2.349,8.504 0,8.504 2.349,8.504 4.252,6.6 4.252,4.252 4.252,1.904 2.349,0 0,0 Z"
             style="fill:none;stroke:#1d1d1b;stroke-width:0.28299999;stroke-linecap:butt;stroke-linejoin:miter;stroke-miterlimit:10;stroke-dasharray:none;stroke-opacity:1"
             id="path84"
             inkscape:connector-curvature="0" /></g><path
           d="m 838.803,595.78 -345.826,0 0,243.779 345.826,0 0,-243.779 z"
           style="fill:none;stroke:#1d1d1b;stroke-width:0.28299999;stroke-linecap:butt;stroke-linejoin:miter;stroke-miterlimit:10;stroke-dasharray:none;stroke-opacity:1"
           id="path86"
           inkscape:connector-curvature="0" /><g
           id="g88"
           transform="translate(814.2207,659.4829)"><path
             d="m 0,0 c -5.244,0 -9.496,4.251 -9.496,9.496 0,5.244 4.252,9.496 9.496,9.496 5.244,0 9.496,-4.252 9.496,-9.496 C 9.496,4.251 5.244,0 0,0 Z"
             style="fill:none;stroke:#1d1d1b;stroke-width:0.28299999;stroke-linecap:butt;stroke-linejoin:miter;stroke-miterlimit:10;stroke-dasharray:none;stroke-opacity:1"
             id="path90"
             inkscape:connector-curvature="0" /></g><g
           id="g92"
           transform="translate(814.2207,749.4829)"><path
             d="m 0,0 c -5.244,0 -9.496,4.251 -9.496,9.496 0,5.244 4.252,9.496 9.496,9.496 5.244,0 9.496,-4.252 9.496,-9.496 C 9.496,4.251 5.244,0 0,0 Z"
             style="fill:none;stroke:#1d1d1b;stroke-width:0.28299999;stroke-linecap:butt;stroke-linejoin:miter;stroke-miterlimit:10;stroke-dasharray:none;stroke-opacity:1"
             id="path94"
             inkscape:connector-curvature="0" /></g><path
           d="m 489.768,5 -243.779,0 0,243.78 243.779,0 0,-243.78 z"
           style="fill:none;stroke:#1d1d1b;stroke-width:0.28299999;stroke-linecap:butt;stroke-linejoin:miter;stroke-miterlimit:10;stroke-dasharray:none;stroke-opacity:1"
           id="path96"
           inkscape:connector-curvature="0" /><path
           d="m 737.001,4 -243.779,0 0,243.78 243.779,0 0,-243.78 z"
           style="fill:none;stroke:#1d1d1b;stroke-width:0.28299999;stroke-linecap:butt;stroke-linejoin:miter;stroke-miterlimit:10;stroke-dasharray:none;stroke-opacity:1"
           id="path98"
           inkscape:connector-curvature="0" /><g
           id="g100"
           transform="translate(693.0645,165.5762)"><path
             d="M 0,0 C 0,0 8.594,-8.139 8.594,-39.686 8.594,-73.373 0,-79.371 0,-79.371 l -155.906,0 c 0,0 -8.503,9.123 -8.503,39.685 0,30.766 8.503,39.686 8.503,39.686 L 0,0"
             style="fill:none;stroke:#1d1d1b;stroke-width:0.28299999;stroke-linecap:butt;stroke-linejoin:miter;stroke-miterlimit:10;stroke-dasharray:none;stroke-opacity:1"
             id="path102"
             inkscape:connector-curvature="0" /></g><g
           id="g104"
           transform="translate(838.8027,355.0146)"><path
             d="m 0,0 0,226.771 -226.771,0 0,-226.771 56.701,0 21.252,113.386 c 0,19.568 15.864,35.432 35.433,35.432 19.569,0 35.433,-15.864 35.433,-35.432 L -56.685,0 0,0 Z"
             style="fill:none;stroke:#1d1d1b;stroke-width:0.28299999;stroke-linecap:butt;stroke-linejoin:miter;stroke-miterlimit:10;stroke-dasharray:none;stroke-opacity:1"
             id="path106"
             inkscape:connector-curvature="0" /></g><path
           d="m 1338.911,14.505 -226.773,0 0,226.771 226.773,0 0,-226.771 z"
           style="fill:none;stroke:#1d1d1b;stroke-width:0.28299999;stroke-linecap:butt;stroke-linejoin:miter;stroke-miterlimit:10;stroke-dasharray:none;stroke-opacity:1"
           id="path108"
           inkscape:connector-curvature="0" /><g
           id="g110"
           transform="translate(1260.958,127.8906)"><path
             d="m 0,0 c 0,-19.569 -15.864,-35.434 -35.434,-35.434 -19.568,0 -35.432,15.865 -35.432,35.434 0,19.568 15.864,35.433 35.432,35.433 C -15.864,35.433 0,19.568 0,0 Z"
             style="fill:none;stroke:#1d1d1b;stroke-width:0.28299999;stroke-linecap:butt;stroke-linejoin:miter;stroke-miterlimit:10;stroke-dasharray:none;stroke-opacity:1"
             id="path112"
             inkscape:connector-curvature="0" /></g><path
           d="m 1270.217,608.284 -56.693,0 0,226.771 56.693,0 0,-226.771 z"
           style="fill:none;stroke:#1d1d1b;stroke-width:0.28299999;stroke-linecap:butt;stroke-linejoin:miter;stroke-miterlimit:10;stroke-dasharray:none;stroke-opacity:1"
           id="path114"
           inkscape:connector-curvature="0" /><g
           id="g116"
           transform="translate(1249.5117,632.3872)"><path
             d="m 0,0 -7.631,-4.27 -7.654,4.235 -0.021,8.504 7.632,4.269 L -0.021,8.504 0,0 Z"
             style="fill:none;stroke:#1d1d1b;stroke-width:0.28299999;stroke-linecap:butt;stroke-linejoin:miter;stroke-miterlimit:10;stroke-dasharray:none;stroke-opacity:1"
             id="path118"
             inkscape:connector-curvature="0" /></g><g
           id="g120"
           transform="translate(1249.5127,802.4653)"><path
             d="m 0,0 -7.631,-4.27 -7.654,4.235 -0.022,8.504 7.633,4.269 L -0.021,8.504 0,0 Z"
             style="fill:none;stroke:#1d1d1b;stroke-width:0.28299999;stroke-linecap:butt;stroke-linejoin:miter;stroke-miterlimit:10;stroke-dasharray:none;stroke-opacity:1"
             id="path122"
             inkscape:connector-curvature="0" /></g><path
           d="m 1342.501,608.284 -56.693,0 0,226.771 56.693,0 0,-226.771 z"
           style="fill:none;stroke:#1d1d1b;stroke-width:0.28299999;stroke-linecap:butt;stroke-linejoin:miter;stroke-miterlimit:10;stroke-dasharray:none;stroke-opacity:1"
           id="path124"
           inkscape:connector-curvature="0" /><g
           id="g126"
           transform="translate(1321.7959,632.3872)"><path
             d="m 0,0 -7.631,-4.27 -7.654,4.235 -0.021,8.504 7.632,4.269 L -0.021,8.504 0,0 Z"
             style="fill:none;stroke:#1d1d1b;stroke-width:0.28299999;stroke-linecap:butt;stroke-linejoin:miter;stroke-miterlimit:10;stroke-dasharray:none;stroke-opacity:1"
             id="path128"
             inkscape:connector-curvature="0" /></g><g
           id="g130"
           transform="translate(1321.7969,802.4653)"><path
             d="m 0,0 -7.631,-4.27 -7.654,4.235 -0.022,8.504 7.633,4.269 L -0.021,8.504 0,0 Z"
             style="fill:none;stroke:#1d1d1b;stroke-width:0.28299999;stroke-linecap:butt;stroke-linejoin:miter;stroke-miterlimit:10;stroke-dasharray:none;stroke-opacity:1"
             id="path132"
             inkscape:connector-curvature="0" /></g><path
           d="m 1344.258,250.78 -235.275,0 0,345.826 235.275,0 0,-345.826 z"
           style="fill:none;stroke:#1d1d1b;stroke-width:0.28299999;stroke-linecap:butt;stroke-linejoin:miter;stroke-miterlimit:10;stroke-dasharray:none;stroke-opacity:1"
           id="path134"
           inkscape:connector-curvature="0" /><g
           id="g136"
           transform="translate(1133.0684,279.1309)"><path
             d="M 0,0 C 0,2.349 1.904,4.252 4.252,4.252 6.6,4.252 8.504,2.349 8.504,0 8.504,-2.349 6.6,-4.252 4.252,-4.252 1.904,-4.252 0,-2.349 0,0 Z"
             style="fill:none;stroke:#1d1d1b;stroke-width:0.28299999;stroke-linecap:butt;stroke-linejoin:miter;stroke-miterlimit:10;stroke-dasharray:none;stroke-opacity:1"
             id="path138"
             inkscape:connector-curvature="0" /></g><g
           id="g140"
           transform="translate(1311.6504,279.1309)"><path
             d="M 0,0 C 0,2.349 1.904,4.252 4.252,4.252 6.6,4.252 8.504,2.349 8.504,0 8.504,-2.349 6.6,-4.252 4.252,-4.252 1.904,-4.252 0,-2.349 0,0 Z"
             style="fill:none;stroke:#1d1d1b;stroke-width:0.28299999;stroke-linecap:butt;stroke-linejoin:miter;stroke-miterlimit:10;stroke-dasharray:none;stroke-opacity:1"
             id="path142"
             inkscape:connector-curvature="0" /></g><path
           d="m 1195.349,604.032 -345.826,0 0,235.275 345.826,0 0,-235.275 z"
           style="fill:none;stroke:#1d1d1b;stroke-width:0.28299999;stroke-linecap:butt;stroke-linejoin:miter;stroke-miterlimit:10;stroke-dasharray:none;stroke-opacity:1"
           id="path144"
           inkscape:connector-curvature="0" /><g
           id="g146"
           transform="translate(1166.998,628.1177)"><path
             d="M 0,0 C -2.349,0 -4.252,1.904 -4.252,4.252 -4.252,6.6 -2.349,8.504 0,8.504 2.349,8.504 4.252,6.6 4.252,4.252 4.252,1.904 2.349,0 0,0 Z"
             style="fill:none;stroke:#1d1d1b;stroke-width:0.28299999;stroke-linecap:butt;stroke-linejoin:miter;stroke-miterlimit:10;stroke-dasharray:none;stroke-opacity:1"
             id="path148"
             inkscape:connector-curvature="0" /></g><g
           id="g150"
           transform="translate(1166.998,806.6997)"><path
             d="M 0,0 C -2.349,0 -4.252,1.904 -4.252,4.252 -4.252,6.6 -2.349,8.504 0,8.504 2.349,8.504 4.252,6.6 4.252,4.252 4.252,1.904 2.349,0 0,0 Z"
             style="fill:none;stroke:#1d1d1b;stroke-width:0.28299999;stroke-linecap:butt;stroke-linejoin:miter;stroke-miterlimit:10;stroke-dasharray:none;stroke-opacity:1"
             id="path152"
             inkscape:connector-curvature="0" /></g><path
           d="m 1085.791,4 -345.826,0 0,243.779 345.826,0 0,-243.779 z"
           style="fill:none;stroke:#1d1d1b;stroke-width:0.28299999;stroke-linecap:butt;stroke-linejoin:miter;stroke-miterlimit:10;stroke-dasharray:none;stroke-opacity:1"
           id="path154"
           inkscape:connector-curvature="0" /><g
           id="g156"
           transform="translate(1061.209,67.7031)"><path
             d="m 0,0 c -5.244,0 -9.496,4.252 -9.496,9.496 0,5.244 4.252,9.496 9.496,9.496 5.244,0 9.496,-4.252 9.496,-9.496 C 9.496,4.252 5.244,0 0,0 Z"
             style="fill:none;stroke:#1d1d1b;stroke-width:0.28299999;stroke-linecap:butt;stroke-linejoin:miter;stroke-miterlimit:10;stroke-dasharray:none;stroke-opacity:1"
             id="path158"
             inkscape:connector-curvature="0" /></g><g
           id="g160"
           transform="translate(1061.209,157.7031)"><path
             d="m 0,0 c -5.244,0 -9.496,4.252 -9.496,9.496 0,5.244 4.252,9.496 9.496,9.496 5.244,0 9.496,-4.252 9.496,-9.496 C 9.496,4.252 5.244,0 0,0 Z"
             style="fill:none;stroke:#1d1d1b;stroke-width:0.28299999;stroke-linecap:butt;stroke-linejoin:miter;stroke-miterlimit:10;stroke-dasharray:none;stroke-opacity:1"
             id="path162"
             inkscape:connector-curvature="0" /></g><path
           d="m 728.542,273.153 -226.771,0 0,56.693 226.771,0 0,-56.693 z"
           style="fill:none;stroke:#1d1d1b;stroke-width:0.28299999;stroke-linecap:butt;stroke-linejoin:miter;stroke-miterlimit:10;stroke-dasharray:none;stroke-opacity:1"
           id="path164"
           inkscape:connector-curvature="0" /><path
           d="m 1408.194,606.283 -56.693,0 0,226.772 56.693,0 0,-226.772 z"
           style="fill:none;stroke:#1d1d1b;stroke-width:0.28299999;stroke-linecap:butt;stroke-linejoin:miter;stroke-miterlimit:10;stroke-dasharray:none;stroke-opacity:1"
           id="path166"
           inkscape:connector-curvature="0" /><path
           d="m 1408.184,369.007 -56.693,0 0,226.772 56.693,0 0,-226.772 z"
           style="fill:none;stroke:#1d1d1b;stroke-width:0.28299999;stroke-linecap:butt;stroke-linejoin:miter;stroke-miterlimit:10;stroke-dasharray:none;stroke-opacity:1"
           id="path168"
           inkscape:connector-curvature="0" /><path
           d="m 1408.194,116.517 -56.693,0 0,226.772 56.693,0 0,-226.772 z"
           style="fill:none;stroke:#1d1d1b;stroke-width:0.28299999;stroke-linecap:butt;stroke-linejoin:miter;stroke-miterlimit:10;stroke-dasharray:none;stroke-opacity:1"
           id="path170"
           inkscape:connector-curvature="0" /></g></g></g></svg>